<svg width="214" height="154" viewBox="0 0 214 154" fill="none" xmlns="http://www.w3.org/2000/svg">
<path d="M214 0H0V154C53.3927 140.736 108.892 133.741 165.85 133.741C182.023 133.741 198.077 134.305 214 135.417V0Z" fill="white"/>
<g clip-path="url(#clip0_277_18)">
<path d="M188.362 116.185L188.003 116.54C187.868 116.38 187.699 116.253 187.508 116.17C187.316 116.087 187.109 116.049 186.9 116.06C186.644 116.039 186.389 116.117 186.188 116.278C186.112 116.351 186.053 116.439 186.013 116.537C185.974 116.634 185.955 116.739 185.959 116.845C185.959 117.181 186.151 117.399 186.541 117.498L187.278 117.685C188.059 117.872 188.449 118.252 188.455 118.812C188.46 118.987 188.423 119.16 188.348 119.317C188.272 119.474 188.16 119.61 188.021 119.715C187.673 119.967 187.248 120.09 186.82 120.064C186.52 120.081 186.22 120.025 185.946 119.9C185.672 119.776 185.432 119.586 185.247 119.348L185.612 118.993C185.692 119.095 185.776 119.192 185.866 119.285C185.975 119.375 186.099 119.445 186.232 119.491C186.429 119.568 186.639 119.604 186.851 119.597C187.12 119.607 187.386 119.54 187.619 119.404C187.713 119.345 187.789 119.262 187.84 119.163C187.892 119.065 187.916 118.954 187.91 118.843C187.914 118.763 187.898 118.684 187.865 118.611C187.831 118.538 187.781 118.475 187.718 118.426C187.551 118.305 187.361 118.218 187.161 118.171L186.405 117.99C186.129 117.962 185.874 117.831 185.69 117.622C185.507 117.413 185.408 117.142 185.414 116.863C185.411 116.695 185.444 116.528 185.51 116.374C185.576 116.219 185.675 116.08 185.798 115.967C186.114 115.695 186.523 115.561 186.938 115.593C187.21 115.58 187.482 115.63 187.733 115.737C187.984 115.845 188.208 116.009 188.387 116.216L188.362 116.185ZM181.537 117.567H183.897C183.902 117.498 183.902 117.43 183.897 117.361C183.91 117.035 183.806 116.715 183.606 116.459C183.504 116.341 183.377 116.249 183.234 116.188C183.091 116.128 182.936 116.101 182.782 116.11C182.001 116.079 181.58 116.564 181.512 117.536L181.537 117.567ZM182.85 119.597C183.079 119.607 183.307 119.569 183.52 119.486C183.734 119.402 183.927 119.274 184.089 119.111L184.38 119.491C184.212 119.683 183.999 119.828 183.76 119.914C183.479 120.037 183.175 120.099 182.868 120.095C182.599 120.115 182.328 120.069 182.08 119.961C181.831 119.852 181.613 119.684 181.444 119.472C181.146 118.983 180.989 118.421 180.989 117.847C180.989 117.274 181.146 116.711 181.444 116.222C181.603 116.014 181.81 115.848 182.048 115.74C182.286 115.631 182.546 115.583 182.807 115.599C183.039 115.583 183.272 115.621 183.487 115.711C183.702 115.8 183.893 115.939 184.045 116.116C184.326 116.469 184.475 116.91 184.466 117.361C184.468 117.57 184.453 117.778 184.423 117.984H181.555C181.524 119.043 181.933 119.566 182.825 119.566L182.85 119.597ZM179.053 113.489H179.605V118.843C179.59 119.007 179.625 119.172 179.704 119.316C179.746 119.37 179.801 119.412 179.864 119.437C179.927 119.462 179.996 119.47 180.063 119.46H180.311V119.976H179.951C179.823 119.991 179.693 119.974 179.572 119.927C179.452 119.881 179.344 119.806 179.258 119.709C179.102 119.465 179.03 119.176 179.053 118.887V113.489ZM175.12 119.46C174.819 118.972 174.659 118.409 174.659 117.835C174.659 117.26 174.819 116.697 175.12 116.21C175.31 116 175.544 115.836 175.806 115.731C176.067 115.625 176.349 115.581 176.63 115.602C176.911 115.622 177.184 115.706 177.428 115.848C177.672 115.99 177.88 116.186 178.038 116.421L177.604 116.708C177.503 116.51 177.346 116.345 177.154 116.235C176.961 116.124 176.741 116.072 176.52 116.085C176.329 116.071 176.138 116.107 175.965 116.19C175.792 116.273 175.644 116.4 175.535 116.558C175.313 116.934 175.205 117.367 175.226 117.803C175.226 118.955 175.653 119.528 176.52 119.528C176.743 119.541 176.965 119.489 177.159 119.379C177.354 119.268 177.512 119.104 177.616 118.906L178.038 119.198C177.88 119.434 177.672 119.631 177.427 119.774C177.183 119.917 176.909 120.001 176.627 120.022C176.345 120.042 176.063 119.998 175.8 119.892C175.538 119.786 175.304 119.621 175.114 119.41L175.12 119.46ZM172.296 116.409C172.396 116.162 172.568 115.952 172.789 115.806C173.01 115.661 173.27 115.586 173.535 115.593C173.717 115.587 173.898 115.608 174.074 115.655L173.987 116.278C173.817 116.222 173.639 116.194 173.461 116.197C172.965 116.197 172.587 116.515 172.321 117.156V120.001H171.77V115.718H172.315L172.296 116.409ZM170.079 114.541C170.019 114.549 169.959 114.543 169.901 114.524C169.844 114.505 169.792 114.472 169.75 114.43C169.707 114.387 169.675 114.335 169.656 114.277C169.637 114.22 169.631 114.159 169.639 114.099C169.63 114.038 169.635 113.977 169.654 113.918C169.672 113.86 169.704 113.807 169.747 113.764C169.79 113.72 169.842 113.687 169.9 113.667C169.957 113.648 170.019 113.642 170.079 113.651C170.197 113.648 170.312 113.69 170.401 113.769C170.446 113.811 170.481 113.862 170.503 113.919C170.526 113.976 170.535 114.038 170.531 114.099C170.536 114.16 170.527 114.222 170.504 114.279C170.481 114.336 170.446 114.387 170.401 114.429C170.314 114.495 170.207 114.53 170.098 114.528L170.079 114.541ZM169.806 119.983V115.699H170.358V119.983H169.806ZM164.852 116.82C164.817 117.51 164.976 118.196 165.31 118.8C165.465 119.045 165.683 119.244 165.942 119.374C166.201 119.505 166.489 119.562 166.778 119.541C167.092 119.543 167.403 119.468 167.682 119.323C167.952 119.19 168.17 118.971 168.301 118.7L168.778 119.018C168.599 119.343 168.328 119.608 167.998 119.777C167.627 119.976 167.211 120.077 166.79 120.07C166.429 120.096 166.067 120.031 165.736 119.882C165.406 119.734 165.117 119.505 164.895 119.217C164.485 118.48 164.27 117.649 164.27 116.804C164.27 115.959 164.485 115.129 164.895 114.391C165.116 114.102 165.404 113.872 165.735 113.722C166.066 113.572 166.428 113.507 166.79 113.532C167.211 113.525 167.627 113.626 167.998 113.825C168.328 113.994 168.599 114.259 168.778 114.584L168.301 114.902C168.17 114.631 167.952 114.412 167.682 114.279C167.403 114.134 167.092 114.059 166.778 114.061C166.489 114.04 166.201 114.097 165.942 114.228C165.683 114.358 165.465 114.557 165.31 114.802C164.969 115.413 164.806 116.108 164.839 116.807L164.852 116.82ZM160.875 122H160.442V113.489H160.875V122ZM157.159 116.185L156.8 116.54C156.666 116.38 156.496 116.253 156.305 116.17C156.114 116.087 155.906 116.049 155.698 116.06C155.442 116.04 155.187 116.118 154.986 116.278C154.91 116.351 154.85 116.439 154.811 116.537C154.771 116.634 154.753 116.739 154.756 116.845C154.756 117.181 154.948 117.399 155.339 117.498L156.076 117.685C156.856 117.872 157.246 118.252 157.252 118.812C157.257 118.987 157.22 119.16 157.145 119.317C157.07 119.474 156.958 119.61 156.819 119.715C156.47 119.967 156.046 120.09 155.617 120.064C155.317 120.081 155.017 120.025 154.743 119.9C154.469 119.776 154.229 119.586 154.044 119.348L154.41 118.993C154.489 119.096 154.576 119.194 154.67 119.285C154.776 119.375 154.898 119.445 155.029 119.491C155.226 119.568 155.437 119.604 155.648 119.597C155.917 119.608 156.184 119.541 156.416 119.404C156.51 119.345 156.587 119.262 156.638 119.163C156.689 119.065 156.713 118.954 156.707 118.843C156.711 118.764 156.696 118.685 156.663 118.613C156.631 118.54 156.583 118.476 156.521 118.426C156.352 118.305 156.16 118.218 155.958 118.171L155.208 117.99C154.932 117.962 154.676 117.831 154.491 117.622C154.307 117.413 154.207 117.143 154.211 116.863C154.212 116.696 154.246 116.53 154.312 116.376C154.378 116.222 154.475 116.082 154.595 115.967C154.911 115.695 155.321 115.561 155.735 115.593C156.001 115.579 156.267 115.625 156.514 115.727C156.76 115.829 156.981 115.986 157.159 116.185V116.185ZM152.205 113.489H152.756V118.843C152.742 119.007 152.776 119.172 152.855 119.316C152.898 119.369 152.954 119.409 153.016 119.434C153.079 119.459 153.147 119.468 153.214 119.46H153.468V119.976H153.103C152.974 119.99 152.845 119.972 152.724 119.926C152.604 119.879 152.496 119.805 152.409 119.709C152.253 119.465 152.182 119.176 152.205 118.887V113.489ZM150.563 114.528C150.503 114.538 150.442 114.533 150.384 114.514C150.327 114.496 150.274 114.463 150.231 114.42C150.188 114.377 150.156 114.324 150.138 114.266C150.119 114.208 150.114 114.147 150.124 114.086C150.114 114.026 150.119 113.964 150.138 113.906C150.157 113.848 150.189 113.795 150.231 113.751C150.274 113.708 150.326 113.675 150.384 113.655C150.442 113.635 150.503 113.63 150.563 113.638C150.68 113.634 150.793 113.677 150.879 113.756C150.924 113.798 150.959 113.849 150.982 113.907C151.004 113.964 151.014 114.025 151.009 114.086C151.014 114.148 151.005 114.209 150.982 114.266C150.96 114.324 150.924 114.375 150.879 114.416C150.798 114.486 150.695 114.525 150.588 114.528H150.563ZM150.291 119.97V115.687H150.842V119.97H150.291ZM147.231 119.547C148.117 119.547 148.563 118.974 148.563 117.828C148.563 116.683 148.123 116.11 147.244 116.11C146.364 116.11 145.943 116.677 145.943 117.816C145.943 118.955 146.401 119.547 147.25 119.547H147.231ZM147.231 115.593C147.499 115.574 147.768 115.62 148.014 115.729C148.26 115.837 148.476 116.004 148.643 116.216C148.971 116.689 149.132 117.259 149.102 117.835C149.132 118.418 148.971 118.996 148.643 119.478C148.472 119.691 148.251 119.858 148.001 119.967C147.751 120.075 147.478 120.121 147.207 120.101C146.942 120.118 146.678 120.07 146.437 119.961C146.195 119.853 145.983 119.687 145.819 119.478C145.5 118.998 145.35 118.423 145.392 117.847C145.361 117.267 145.527 116.694 145.863 116.222C146.027 116.014 146.239 115.848 146.481 115.739C146.722 115.63 146.986 115.58 147.25 115.593H147.231ZM140.598 116.838C140.566 117.528 140.725 118.214 141.056 118.818C141.211 119.064 141.43 119.262 141.688 119.393C141.947 119.523 142.236 119.581 142.524 119.559C142.839 119.562 143.149 119.487 143.429 119.341C143.699 119.21 143.917 118.99 144.048 118.719L144.525 119.036C144.342 119.361 144.069 119.626 143.738 119.796C143.359 120.003 142.931 120.104 142.499 120.089C142.138 120.113 141.777 120.048 141.446 119.899C141.116 119.75 140.827 119.522 140.604 119.236C140.194 118.498 139.979 117.668 139.979 116.823C139.979 115.978 140.194 115.147 140.604 114.41C140.826 114.121 141.114 113.892 141.445 113.742C141.775 113.592 142.138 113.526 142.499 113.551C142.931 113.536 143.359 113.637 143.738 113.844C144.069 114.014 144.342 114.278 144.525 114.603L144.048 114.921C143.917 114.649 143.699 114.43 143.429 114.298C143.149 114.153 142.839 114.078 142.524 114.08C142.236 114.059 141.947 114.116 141.688 114.246C141.43 114.377 141.211 114.576 141.056 114.821C140.742 115.433 140.599 116.12 140.641 116.807L140.598 116.838ZM136.721 122H136.281V113.489H136.721V122ZM133.005 116.185L132.652 116.54C132.517 116.38 132.348 116.254 132.156 116.17C131.965 116.087 131.757 116.05 131.549 116.06C131.291 116.04 131.035 116.118 130.831 116.278C130.756 116.352 130.698 116.44 130.658 116.538C130.619 116.635 130.6 116.739 130.602 116.845C130.602 117.181 130.8 117.399 131.19 117.498L131.921 117.685C132.701 117.872 133.098 118.252 133.098 118.812C133.102 118.986 133.066 119.158 132.992 119.315C132.918 119.472 132.807 119.609 132.67 119.715C132.312 119.976 131.873 120.099 131.432 120.064C131.133 120.08 130.834 120.024 130.561 119.899C130.288 119.774 130.049 119.585 129.865 119.348L130.23 118.993C130.31 119.095 130.395 119.192 130.484 119.285C130.592 119.374 130.713 119.443 130.843 119.491C131.041 119.567 131.251 119.603 131.463 119.597C131.732 119.607 131.998 119.54 132.231 119.404C132.323 119.344 132.399 119.261 132.449 119.162C132.499 119.064 132.522 118.954 132.516 118.843C132.519 118.764 132.504 118.685 132.472 118.613C132.44 118.54 132.391 118.476 132.33 118.426C132.161 118.304 131.969 118.217 131.766 118.171L131.017 117.99C130.74 117.962 130.484 117.831 130.3 117.622C130.115 117.413 130.015 117.143 130.02 116.863C130.02 116.696 130.055 116.53 130.121 116.376C130.187 116.222 130.283 116.082 130.404 115.967C130.72 115.697 131.129 115.563 131.543 115.593C131.806 115.582 132.069 115.629 132.312 115.731C132.555 115.833 132.773 115.988 132.949 116.185H133.005ZM127.988 116.185V118.812C127.988 119.304 128.199 119.547 128.608 119.547C128.824 119.539 129.036 119.482 129.227 119.379L129.332 119.864C129.067 119.998 128.774 120.067 128.477 120.064C127.778 120.064 127.425 119.665 127.425 118.862V116.185H126.601V115.78L127.425 115.687V114.597L127.976 114.485V115.687H129.215V116.185H127.988ZM123.033 117.536H125.399C125.405 117.467 125.405 117.399 125.399 117.33C125.412 117.004 125.309 116.684 125.108 116.427C125.006 116.31 124.879 116.218 124.736 116.158C124.594 116.097 124.439 116.07 124.285 116.079C123.492 116.079 123.062 116.564 122.996 117.536H123.033ZM124.353 119.566C124.581 119.575 124.809 119.537 125.023 119.453C125.236 119.37 125.43 119.243 125.591 119.08L125.876 119.46C125.71 119.652 125.496 119.798 125.257 119.883C124.975 120.005 124.672 120.066 124.365 120.064C124.095 120.084 123.824 120.039 123.576 119.93C123.328 119.822 123.109 119.654 122.941 119.441C122.614 118.958 122.455 118.38 122.488 117.797C122.46 117.226 122.622 116.661 122.947 116.191C123.105 115.982 123.313 115.816 123.55 115.708C123.788 115.599 124.049 115.551 124.309 115.568C124.542 115.55 124.775 115.587 124.99 115.677C125.206 115.767 125.397 115.907 125.548 116.085C125.833 116.436 125.985 116.877 125.975 117.33C125.977 117.539 125.962 117.747 125.932 117.953H123.058C123.029 119.028 123.455 119.566 124.334 119.566H124.353ZM118.642 117.536H121.008C121.012 117.467 121.012 117.399 121.008 117.33C121.024 117.005 120.923 116.685 120.723 116.427C120.621 116.311 120.494 116.219 120.351 116.158C120.208 116.098 120.054 116.071 119.9 116.079C119.107 116.079 118.675 116.564 118.605 117.536H118.642ZM119.961 119.566C120.19 119.575 120.418 119.536 120.631 119.453C120.844 119.369 121.038 119.242 121.2 119.08L121.485 119.46C121.319 119.652 121.105 119.798 120.866 119.883C120.584 120.005 120.28 120.066 119.974 120.064C119.704 120.084 119.433 120.039 119.185 119.93C118.936 119.822 118.718 119.654 118.549 119.441C118.222 118.958 118.063 118.38 118.097 117.797C118.069 117.226 118.23 116.661 118.556 116.191C118.714 115.982 118.921 115.816 119.159 115.708C119.397 115.599 119.658 115.551 119.918 115.568C120.15 115.551 120.383 115.589 120.598 115.679C120.814 115.769 121.005 115.908 121.157 116.085C121.442 116.436 121.594 116.877 121.584 117.33C121.583 117.539 121.567 117.747 121.535 117.953H118.667C118.638 119.028 119.057 119.566 119.924 119.566H119.961ZM113.465 119.97V113.489H114.016V116.191C114.183 115.997 114.396 115.849 114.635 115.761C114.897 115.649 115.18 115.592 115.465 115.593C115.675 115.572 115.887 115.597 116.087 115.666C116.287 115.735 116.47 115.846 116.623 115.992C116.862 116.355 116.962 116.793 116.902 117.224V119.989H116.351V117.224C116.377 116.92 116.291 116.616 116.109 116.371C115.995 116.272 115.862 116.197 115.719 116.151C115.575 116.105 115.423 116.089 115.273 116.104C115.023 116.087 114.772 116.132 114.542 116.234C114.313 116.336 114.111 116.492 113.954 116.689V119.958L113.465 119.97ZM112.183 114.454L111.718 114.777C111.566 114.538 111.352 114.345 111.098 114.219C110.845 114.093 110.563 114.038 110.281 114.061C110.096 114.049 109.911 114.073 109.736 114.133C109.56 114.193 109.398 114.287 109.259 114.41C109.144 114.528 109.053 114.669 108.993 114.823C108.932 114.977 108.903 115.141 108.906 115.307C108.898 115.43 108.915 115.554 108.958 115.67C109.001 115.786 109.068 115.891 109.154 115.979C109.379 116.167 109.644 116.301 109.928 116.371L110.789 116.627C111.196 116.735 111.573 116.935 111.891 117.212C112.027 117.347 112.132 117.51 112.2 117.689C112.268 117.869 112.298 118.06 112.288 118.252C112.296 118.497 112.251 118.741 112.156 118.967C112.06 119.192 111.917 119.395 111.737 119.559C111.305 119.919 110.754 120.099 110.194 120.064C109.892 120.067 109.59 120.032 109.296 119.958C109.07 119.899 108.859 119.793 108.677 119.646C108.537 119.534 108.413 119.404 108.305 119.26C108.216 119.129 108.139 118.99 108.076 118.843L108.559 118.563C108.671 118.847 108.86 119.093 109.104 119.273C109.434 119.466 109.814 119.555 110.194 119.528C110.592 119.557 110.987 119.437 111.303 119.192C111.429 119.076 111.528 118.935 111.593 118.776C111.658 118.618 111.688 118.448 111.681 118.277C111.688 118.146 111.666 118.016 111.617 117.896C111.567 117.775 111.492 117.667 111.396 117.579C111.162 117.387 110.89 117.249 110.597 117.175L109.73 116.919C108.776 116.633 108.299 116.104 108.299 115.332C108.293 115.094 108.336 114.857 108.424 114.637C108.513 114.416 108.645 114.216 108.813 114.049C109.01 113.867 109.242 113.726 109.494 113.636C109.746 113.547 110.014 113.509 110.281 113.526C110.692 113.513 111.099 113.606 111.464 113.794C111.748 113.946 111.983 114.175 112.145 114.454H112.183ZM104.874 122H104.441V113.489H104.874V122ZM101.158 116.185L100.805 116.54C100.67 116.38 100.5 116.254 100.309 116.171C100.118 116.088 99.9107 116.05 99.7027 116.06C99.4444 116.039 99.1878 116.117 98.9842 116.278C98.9084 116.351 98.8488 116.439 98.8093 116.537C98.7698 116.634 98.7513 116.739 98.7551 116.845C98.7551 117.181 98.9533 117.399 99.3373 117.498L100.074 117.685C100.855 117.872 101.245 118.252 101.251 118.812C101.253 118.988 101.213 119.162 101.134 119.319C101.055 119.476 100.94 119.612 100.799 119.715C100.439 119.972 100.001 120.095 99.5602 120.064C99.2599 120.081 98.9599 120.025 98.6859 119.9C98.4119 119.776 98.1721 119.586 97.9871 119.348L98.3525 118.993C98.432 119.096 98.519 119.194 98.6126 119.285C98.719 119.375 98.8407 119.445 98.9718 119.491C99.1691 119.568 99.3798 119.604 99.5912 119.597C99.8604 119.608 100.127 119.541 100.359 119.404C100.453 119.345 100.53 119.262 100.581 119.163C100.632 119.065 100.656 118.954 100.65 118.843C100.654 118.764 100.639 118.685 100.606 118.613C100.574 118.54 100.526 118.476 100.464 118.426C100.295 118.305 100.103 118.218 99.9009 118.171L99.1514 117.99C98.875 117.962 98.6191 117.831 98.4344 117.622C98.2498 117.413 98.1498 117.143 98.1543 116.863C98.1549 116.696 98.1893 116.53 98.2553 116.376C98.3213 116.222 98.4175 116.082 98.5383 115.967C98.8546 115.696 99.264 115.562 99.6779 115.593C99.9442 115.579 100.21 115.625 100.457 115.727C100.703 115.829 100.924 115.986 101.102 116.185H101.158ZM94.3082 117.536H96.6741C96.6783 117.467 96.6783 117.399 96.6741 117.33C96.6905 117.004 96.5869 116.682 96.383 116.427C96.2822 116.311 96.1561 116.218 96.0144 116.158C95.8727 116.097 95.7191 116.07 95.5654 116.079C94.7603 116.079 94.3226 116.564 94.2524 117.536H94.3082ZM95.6274 119.566C95.8562 119.576 96.0847 119.539 96.298 119.455C96.5114 119.371 96.7049 119.244 96.8661 119.08L97.1572 119.46C96.9906 119.652 96.7772 119.798 96.5378 119.883C96.2562 120.005 95.9525 120.066 95.646 120.064C95.3759 120.085 95.1048 120.039 94.8565 119.931C94.6081 119.822 94.39 119.654 94.2215 119.441C93.9237 118.952 93.7661 118.389 93.7661 117.816C93.7661 117.242 93.9237 116.68 94.2215 116.191C94.3817 115.983 94.5903 115.817 94.8288 115.708C95.0674 115.6 95.3288 115.552 95.5902 115.568C95.8225 115.551 96.0555 115.589 96.2705 115.679C96.4856 115.769 96.6768 115.908 96.8289 116.085C97.1141 116.436 97.2656 116.877 97.2563 117.33C97.2556 117.539 97.239 117.747 97.2067 117.953H94.3391C94.2937 119.028 94.7045 119.566 95.5716 119.566H95.6274ZM92.1838 117.847C92.1838 116.695 91.7379 116.116 90.8522 116.116C90.6135 116.092 90.3728 116.138 90.1595 116.248C89.9462 116.359 89.7694 116.529 89.6507 116.739V118.912C89.775 119.116 89.9528 119.283 90.1647 119.392C90.3766 119.502 90.6144 119.551 90.8522 119.534C91.0468 119.554 91.2431 119.524 91.4229 119.446C91.6026 119.369 91.76 119.247 91.8803 119.092C92.103 118.717 92.2088 118.283 92.1838 117.847V117.847ZM89.6507 119.541V122H89.1057V115.687H89.6507V116.129C89.8097 115.945 90.0088 115.802 90.2323 115.709C90.4558 115.616 90.6977 115.576 90.9389 115.593C91.2002 115.577 91.4615 115.626 91.7 115.734C91.9385 115.843 92.1471 116.008 92.3077 116.216C92.6244 116.698 92.7786 117.27 92.7474 117.847C92.7828 118.426 92.6236 119.001 92.2953 119.478C92.1298 119.678 91.9193 119.835 91.6812 119.937C91.4432 120.039 91.1845 120.082 90.9265 120.064C90.6881 120.081 90.4489 120.043 90.2275 119.953C90.0062 119.862 89.8088 119.721 89.6507 119.541V119.541ZM87.4272 114.528C87.3676 114.537 87.3068 114.531 87.2497 114.512C87.1926 114.492 87.1407 114.46 87.0981 114.417C87.0555 114.374 87.0234 114.322 87.0042 114.265C86.985 114.207 86.9793 114.146 86.9875 114.086C86.9782 114.026 86.9831 113.964 87.0018 113.906C87.0206 113.848 87.0526 113.795 87.0953 113.751C87.138 113.708 87.1903 113.675 87.2479 113.655C87.3056 113.635 87.367 113.63 87.4272 113.638C87.5458 113.634 87.6612 113.677 87.7493 113.756C87.7941 113.798 87.8291 113.849 87.8516 113.907C87.8741 113.964 87.8836 114.025 87.8794 114.086C87.884 114.148 87.8748 114.209 87.8522 114.266C87.8297 114.324 87.7945 114.375 87.7493 114.416C87.659 114.492 87.5446 114.532 87.4272 114.528V114.528ZM87.1609 119.97V115.687H87.7121V119.97H87.1609ZM82.683 114.111V116.838H83.9837C84.9622 116.838 85.4453 116.384 85.4453 115.475C85.4453 114.566 84.9622 114.111 83.9837 114.111H82.683ZM84.0022 117.361H82.683V119.945H82.0637V113.594H83.9713C84.5324 113.55 85.0886 113.729 85.5196 114.093C85.8492 114.477 86.0305 114.967 86.0305 115.475C86.0305 115.982 85.8492 116.473 85.5196 116.857C85.1029 117.227 84.5576 117.418 84.0022 117.386V117.361ZM77.7283 113.489H78.2795V118.843C78.2653 119.007 78.2998 119.172 78.3786 119.316C78.4217 119.369 78.4772 119.409 78.54 119.434C78.6028 119.459 78.6708 119.468 78.7378 119.46H78.9917V119.976H78.6263C78.4979 119.99 78.3682 119.972 78.2478 119.926C78.1273 119.879 78.0193 119.805 77.9327 119.709C77.777 119.465 77.7052 119.176 77.7283 118.887V113.489ZM73.7025 117.536H76.0684C76.0727 117.467 76.0727 117.399 76.0684 117.33C76.0815 117.004 75.9783 116.684 75.7773 116.427C75.6765 116.311 75.5504 116.218 75.4087 116.158C75.267 116.097 75.1135 116.07 74.9598 116.079C74.1918 116.079 73.7727 116.564 73.7025 117.536ZM75.0217 119.566C75.2505 119.576 75.479 119.539 75.6924 119.455C75.9058 119.371 76.0993 119.244 76.2604 119.08L76.5515 119.46C76.3837 119.651 76.1707 119.796 75.9322 119.883C75.6506 120.005 75.3468 120.066 75.0403 120.064C74.7695 120.084 74.4976 120.039 74.2484 119.93C73.9991 119.822 73.7799 119.654 73.6096 119.441C73.2851 118.957 73.1264 118.38 73.1575 117.797C73.1323 117.226 73.2932 116.662 73.6158 116.191C73.7761 115.983 73.9846 115.817 74.2232 115.708C74.4618 115.6 74.7232 115.552 74.9846 115.568C75.2168 115.551 75.4498 115.589 75.6649 115.679C75.88 115.769 76.0712 115.908 76.2233 116.085C76.5085 116.436 76.66 116.877 76.6506 117.33C76.6499 117.539 76.6334 117.747 76.6011 117.953H73.7025C73.7149 119.028 74.1546 119.566 75.0217 119.566ZM69.3114 117.536H71.6896C71.6949 117.467 71.6949 117.399 71.6896 117.33C71.7027 117.004 71.5995 116.684 71.3986 116.427C71.2968 116.31 71.1697 116.218 71.0269 116.157C70.8841 116.097 70.7295 116.07 70.5748 116.079C69.8316 116.079 69.3795 116.564 69.3114 117.536ZM70.6244 119.566C70.8531 119.576 71.0815 119.538 71.2948 119.454C71.5082 119.371 71.7017 119.243 71.8631 119.08L72.1542 119.46C71.9863 119.651 71.7733 119.796 71.5348 119.883C71.2512 120.005 70.9453 120.067 70.6368 120.064C70.3669 120.084 70.0961 120.038 69.8479 119.929C69.5997 119.821 69.3815 119.653 69.2123 119.441C68.8878 118.957 68.729 118.38 68.7601 117.797C68.7349 117.226 68.8959 116.662 69.2185 116.191C69.3774 115.983 69.5848 115.817 69.8224 115.709C70.06 115.6 70.3205 115.552 70.581 115.568C70.8132 115.552 71.0461 115.59 71.2611 115.68C71.4761 115.769 71.6673 115.908 71.8197 116.085C72.1056 116.435 72.2553 116.878 72.2409 117.33C72.2422 117.539 72.2277 117.747 72.1975 117.953H69.3114C69.3237 119.043 69.7635 119.566 70.6244 119.566ZM66.7349 116.185V118.812C66.7349 119.304 66.9455 119.547 67.3542 119.547C67.5708 119.539 67.7827 119.482 67.9736 119.379L68.0789 119.864C67.8157 119.997 67.5249 120.066 67.2304 120.064C66.5243 120.064 66.1713 119.665 66.1713 118.862V116.185H65.3723V115.78L66.196 115.687V114.597L66.7473 114.485V115.687H67.986V116.185H66.7349ZM64.5857 114.454L64.1212 114.777C63.9676 114.538 63.7522 114.345 63.4981 114.219C63.244 114.093 62.9606 114.038 62.6782 114.061C62.4944 114.05 62.31 114.074 62.1357 114.134C61.9614 114.194 61.8006 114.288 61.6624 114.41C61.5473 114.528 61.4567 114.669 61.3961 114.823C61.3355 114.977 61.306 115.141 61.3094 115.307C61.3009 115.43 61.3186 115.554 61.3613 115.67C61.404 115.786 61.4708 115.891 61.5571 115.979C61.782 116.168 62.0468 116.302 62.3313 116.371L63.186 116.627C63.5954 116.733 63.9748 116.934 64.2946 117.212C64.4288 117.348 64.5334 117.511 64.6016 117.69C64.6698 117.869 64.7003 118.06 64.691 118.252C64.6992 118.497 64.6541 118.741 64.5589 118.967C64.4637 119.192 64.3207 119.395 64.1398 119.559C63.7072 119.917 63.1565 120.097 62.5976 120.064C62.295 120.068 61.9931 120.032 61.6996 119.958C61.4732 119.9 61.2619 119.794 61.0802 119.646C60.9407 119.534 60.8158 119.404 60.7086 119.26C60.6167 119.13 60.5379 118.99 60.4733 118.843L60.9626 118.563C61.0736 118.845 61.2601 119.091 61.5014 119.273C61.833 119.467 62.215 119.556 62.5976 119.528C62.9956 119.556 63.3899 119.436 63.7063 119.192C63.831 119.076 63.9293 118.934 63.9945 118.776C64.0597 118.618 64.0903 118.448 64.0841 118.277C64.0894 118.147 64.0667 118.017 64.0175 117.897C63.9683 117.776 63.8938 117.668 63.7992 117.579C63.5649 117.388 63.2924 117.25 63.0002 117.175L62.1331 116.919C61.1793 116.633 60.6962 116.104 60.6962 115.332C60.6901 115.093 60.7331 114.856 60.8227 114.636C60.9122 114.415 61.0463 114.215 61.2165 114.049C61.4126 113.867 61.6432 113.728 61.8943 113.638C62.1455 113.548 62.4121 113.51 62.6782 113.526C63.0905 113.514 63.4993 113.606 63.8673 113.794C64.1677 113.94 64.421 114.169 64.5981 114.454H64.5857ZM57.4633 116.185L57.1102 116.54C56.9754 116.38 56.8059 116.254 56.6147 116.17C56.4235 116.087 56.2158 116.05 56.0078 116.06C55.7514 116.039 55.4967 116.117 55.2956 116.278C55.2198 116.351 55.1602 116.439 55.1207 116.537C55.0812 116.634 55.0627 116.739 55.0664 116.845C55.0664 117.181 55.2584 117.399 55.6486 117.498L56.3794 117.685C57.1598 117.872 57.5562 118.252 57.5562 118.812C57.5608 118.986 57.5245 119.158 57.4502 119.315C57.3759 119.472 57.2658 119.609 57.1288 119.715C56.7787 119.969 56.3517 120.092 55.9211 120.064C55.6208 120.081 55.3208 120.025 55.0468 119.9C54.7727 119.776 54.5329 119.586 54.348 119.348L54.7134 118.993C54.7929 119.095 54.8777 119.192 54.9673 119.285C55.0747 119.374 55.1962 119.443 55.3265 119.491C55.524 119.567 55.7345 119.603 55.9459 119.597C56.2149 119.607 56.4811 119.54 56.7139 119.404C56.8066 119.344 56.8818 119.261 56.9319 119.162C56.982 119.064 57.0051 118.954 56.9988 118.843C57.0022 118.764 56.9871 118.685 56.9549 118.613C56.9226 118.54 56.874 118.476 56.8129 118.426C56.6441 118.304 56.4524 118.217 56.2493 118.171L55.4999 117.99C55.224 117.962 54.9688 117.831 54.7852 117.622C54.6015 117.413 54.5029 117.142 54.509 116.863C54.5066 116.696 54.539 116.529 54.604 116.375C54.6691 116.221 54.7654 116.082 54.8868 115.967C55.2034 115.697 55.6125 115.563 56.0264 115.593C56.2967 115.575 56.5676 115.619 56.8187 115.721C57.0697 115.824 57.2944 115.982 57.4756 116.185H57.4633ZM53.4747 116.185L53.1216 116.54C52.9865 116.38 52.8169 116.254 52.6258 116.171C52.4347 116.088 52.2272 116.05 52.0192 116.06C51.761 116.039 51.5044 116.117 51.3008 116.278C51.2262 116.352 51.1674 116.44 51.128 116.538C51.0886 116.635 51.0694 116.739 51.0716 116.845C51.0716 117.181 51.2698 117.399 51.691 117.498L52.4218 117.685C53.2022 117.872 53.5924 118.252 53.5985 118.812C53.6032 118.986 53.5668 119.158 53.4926 119.315C53.4183 119.472 53.3082 119.609 53.1712 119.715C52.8114 119.973 52.3732 120.096 51.9325 120.064C51.6332 120.08 51.3344 120.024 51.0616 119.899C50.7887 119.774 50.5499 119.585 50.3656 119.348L50.7248 118.993C50.8061 119.095 50.8929 119.193 50.9849 119.285C51.0913 119.375 51.213 119.445 51.3441 119.491C51.5414 119.567 51.7521 119.603 51.9635 119.597C52.2306 119.607 52.4951 119.54 52.7253 119.404C52.8191 119.345 52.8956 119.262 52.9468 119.163C52.998 119.065 53.022 118.954 53.0164 118.843C53.0198 118.764 53.0047 118.685 52.9725 118.613C52.9402 118.54 52.8916 118.476 52.8306 118.426C52.6609 118.305 52.4695 118.218 52.2669 118.171L51.5175 117.99C51.2411 117.962 50.9852 117.831 50.8005 117.622C50.6159 117.413 50.5159 117.143 50.5204 116.863C50.521 116.696 50.5554 116.53 50.6214 116.376C50.6873 116.222 50.7836 116.082 50.9044 115.967C51.2207 115.696 51.63 115.562 52.044 115.593C52.3133 115.576 52.583 115.62 52.8329 115.723C53.0828 115.825 53.3064 115.983 53.4871 116.185H53.4747ZM46.6371 117.536H49.003C49.0072 117.467 49.0072 117.399 49.003 117.33C49.0184 117.005 48.9173 116.685 48.7181 116.427C48.6157 116.311 48.4885 116.219 48.3459 116.158C48.2033 116.098 48.0489 116.071 47.8944 116.079C47.1264 116.079 46.7073 116.564 46.6371 117.536ZM47.9563 119.566C48.1851 119.576 48.4136 119.539 48.627 119.455C48.8404 119.371 49.0339 119.244 49.195 119.08L49.4861 119.46C49.3195 119.652 49.1061 119.798 48.8667 119.883C48.5852 120.005 48.2814 120.066 47.9749 120.064C47.7049 120.085 47.4338 120.039 47.1854 119.931C46.937 119.822 46.7189 119.654 46.5504 119.441C46.2526 118.952 46.095 118.389 46.095 117.816C46.095 117.242 46.2526 116.68 46.5504 116.191C46.7106 115.983 46.9192 115.817 47.1578 115.708C47.3964 115.6 47.6578 115.552 47.9191 115.568C48.1514 115.551 48.3844 115.589 48.5995 115.679C48.8146 115.769 49.0058 115.908 49.1578 116.085C49.443 116.436 49.5945 116.877 49.5852 117.33C49.5845 117.539 49.5679 117.747 49.5356 117.953H46.6371C46.6495 119.028 47.0892 119.566 47.9563 119.566ZM44.1783 113.489H44.7295V118.843C44.7153 119.007 44.7498 119.172 44.8286 119.316C44.8717 119.369 44.9272 119.409 44.99 119.434C45.0528 119.459 45.1208 119.468 45.1878 119.46H45.4418V119.976H45.0578C44.9294 119.99 44.7997 119.972 44.6792 119.926C44.5587 119.879 44.4508 119.805 44.3641 119.709C44.2084 119.465 44.1366 119.176 44.1597 118.887L44.1783 113.489ZM39.3598 119.97V115.687H39.8986V116.21C40.0604 116.006 40.2746 115.851 40.518 115.761C40.7826 115.649 41.067 115.592 41.3541 115.593C41.5651 115.573 41.7781 115.598 41.9788 115.667C42.1795 115.735 42.3634 115.846 42.5184 115.992C42.7794 116.34 42.905 116.771 42.8715 117.206V119.97H42.3264V117.224C42.3528 116.92 42.2668 116.616 42.0849 116.371C41.9701 116.271 41.8361 116.196 41.6912 116.15C41.5464 116.104 41.3937 116.088 41.2426 116.104C40.993 116.087 40.7432 116.132 40.5145 116.234C40.2858 116.336 40.0851 116.492 39.9296 116.689V119.958L39.3598 119.97ZM37.6813 114.528C37.6219 114.537 37.5613 114.531 37.5044 114.512C37.4475 114.493 37.3959 114.46 37.3537 114.417C37.3115 114.374 37.28 114.322 37.2616 114.264C37.2432 114.207 37.2385 114.146 37.2478 114.086C37.2387 114.027 37.2436 113.965 37.262 113.908C37.2804 113.85 37.3118 113.797 37.3538 113.754C37.3958 113.711 37.4472 113.677 37.504 113.657C37.5609 113.637 37.6216 113.631 37.6813 113.638C37.8 113.633 37.9157 113.676 38.0034 113.756C38.0482 113.798 38.0832 113.849 38.1057 113.907C38.1282 113.964 38.1377 114.025 38.1335 114.086C38.1382 114.148 38.1289 114.209 38.1063 114.266C38.0838 114.324 38.0486 114.375 38.0034 114.416C37.9135 114.492 37.7988 114.532 37.6813 114.528ZM37.415 119.97V115.687H37.9662V119.97H37.415ZM33.2902 118.856C33.2902 119.341 33.5751 119.584 34.1449 119.584C34.4006 119.586 34.6535 119.531 34.8857 119.423C35.1179 119.315 35.3238 119.158 35.4889 118.962V117.847L34.6589 117.953C33.7671 118.084 33.2902 118.383 33.2902 118.856ZM36.0277 119.97H35.5074V119.422C35.324 119.629 35.0971 119.792 34.8433 119.9C34.5894 120.007 34.3149 120.057 34.0396 120.045C33.6883 120.066 33.3417 119.955 33.0672 119.734C32.9495 119.62 32.8576 119.482 32.7977 119.33C32.7379 119.177 32.7115 119.013 32.7204 118.849C32.7204 118.096 33.3397 117.648 34.6342 117.498L35.4889 117.399V116.907C35.497 116.793 35.4814 116.679 35.443 116.572C35.4046 116.465 35.3443 116.367 35.2659 116.284C35.0427 116.125 34.7701 116.052 34.4979 116.079C33.829 116.079 33.5008 116.272 33.5008 116.652V116.938H32.9929C32.9929 116.795 32.9929 116.695 32.9929 116.627C32.9892 116.478 33.0231 116.331 33.0913 116.199C33.1596 116.068 33.26 115.955 33.3831 115.873C33.7289 115.662 34.1315 115.564 34.5351 115.593C35.5446 115.593 36.0463 116.035 36.0463 116.919L36.0277 119.97ZM30.8128 116.185V118.812C30.8128 119.304 31.0234 119.547 31.4321 119.547C31.6487 119.539 31.8606 119.482 32.0515 119.379L32.1568 119.864C31.8912 119.997 31.5985 120.065 31.3021 120.064C30.6022 120.064 30.2492 119.665 30.2492 118.862V116.185H29.4317V115.78L30.2554 115.687V114.597L30.8066 114.485V115.687H32.0453V116.185H30.8128ZM28.6637 114.454L28.193 114.777C28.0413 114.538 27.8272 114.344 27.5739 114.218C27.3206 114.092 27.0378 114.038 26.7561 114.061C26.5723 114.05 26.388 114.074 26.2137 114.134C26.0394 114.194 25.8785 114.288 25.7404 114.41C25.6217 114.526 25.5284 114.666 25.4666 114.82C25.4047 114.975 25.3756 115.14 25.3811 115.307C25.3738 115.43 25.392 115.553 25.4347 115.669C25.4773 115.785 25.5435 115.89 25.6289 115.979C25.8553 116.165 26.1196 116.299 26.4031 116.371L27.2639 116.627C27.6728 116.735 28.0519 116.935 28.3726 117.212C28.5056 117.349 28.609 117.512 28.6762 117.691C28.7434 117.87 28.7728 118.061 28.7628 118.252C28.7726 118.497 28.7283 118.742 28.633 118.968C28.5377 119.194 28.3938 119.396 28.2115 119.559C27.7802 119.919 27.2286 120.099 26.6694 120.064C26.3688 120.067 26.069 120.032 25.7775 119.958C25.5514 119.899 25.3402 119.793 25.1582 119.646C25.0219 119.532 24.8993 119.403 24.7928 119.26C24.7008 119.13 24.622 118.99 24.5574 118.843L25.0405 118.563C25.156 118.844 25.3441 119.089 25.5855 119.273C25.9152 119.466 26.295 119.555 26.6756 119.528C27.0737 119.558 27.4686 119.438 27.7842 119.192C27.9099 119.076 28.0089 118.935 28.0742 118.776C28.1395 118.618 28.1694 118.448 28.162 118.277C28.169 118.146 28.1471 118.016 28.0978 117.896C28.0485 117.775 27.9731 117.667 27.8771 117.579C27.6495 117.389 27.3832 117.251 27.0967 117.175L26.2296 116.919C25.2387 116.633 24.768 116.104 24.768 115.357C24.7618 115.118 24.8048 114.881 24.8944 114.66C24.9839 114.44 25.118 114.24 25.2882 114.074C25.4844 113.892 25.7149 113.753 25.966 113.663C26.2172 113.573 26.4838 113.535 26.7499 113.551C27.1623 113.539 27.571 113.631 27.939 113.819C28.2317 113.96 28.4802 114.18 28.6575 114.454H28.6637Z" fill="#231F20"/>
<path d="M97.6279 91.9021L101.078 100.619L104.509 91.9021H107.606L99.8451 111.104L96.9218 111.135L99.7151 104.05L94.3887 91.9021H97.6279ZM90.5673 94.3615V100.905C90.5673 102.026 91.0938 102.586 92.1343 102.586C92.7101 102.579 93.2794 102.463 93.8127 102.244L93.9551 104.734C93.0937 105.067 92.1773 105.231 91.2548 105.22C90.756 105.263 90.2542 105.189 89.7881 105.006C89.322 104.822 88.9041 104.534 88.5668 104.162C87.947 103.323 87.6401 102.291 87.6997 101.248V94.3366H85.3153V92.1636L87.7059 91.8772V88.6457L90.5735 88.1912V91.8772H93.7569V94.3366L90.5673 94.3615ZM82.0575 89.1003C80.8188 89.1003 80.1995 88.4776 80.1995 87.3009C80.1808 87.0487 80.2171 86.7955 80.3059 86.5589C80.3947 86.3223 80.5338 86.108 80.7135 85.9311C81.0839 85.6146 81.5594 85.4501 82.0451 85.4703C82.516 85.463 82.9728 85.6316 83.3272 85.9435C83.5114 86.1155 83.6553 86.3265 83.7485 86.5612C83.8417 86.796 83.8818 87.0486 83.866 87.3009C83.8837 87.5503 83.8456 87.8006 83.7545 88.0333C83.6634 88.266 83.5216 88.4753 83.3395 88.6457C82.9828 88.9514 82.526 89.1133 82.0575 89.1003V89.1003ZM80.664 104.934V91.9021H83.5068V104.934H80.664ZM67.7506 98.4148C67.6761 96.6627 68.1911 94.9365 69.2123 93.5147C70.1908 92.2694 71.6649 91.6468 73.6344 91.6468C76.0416 91.6468 77.7179 92.5704 78.6635 94.4175L76.6444 95.8433C76.388 95.3249 75.9893 94.891 75.4954 94.5931C75.0015 94.2952 74.4331 94.1457 73.8574 94.1622C71.7598 94.1622 70.709 95.5798 70.7049 98.4148C70.7008 101.25 71.7516 102.669 73.8574 102.674C74.4268 102.685 74.9882 102.538 75.4799 102.249C75.9716 101.96 76.3746 101.54 76.6444 101.036L78.6635 102.493C77.7345 104.34 76.0581 105.264 73.6344 105.264C71.6649 105.264 70.1908 104.641 69.2123 103.396C68.1758 101.951 67.6602 100.194 67.7506 98.4148V98.4148ZM54.125 104.934V91.9021H56.8811V93.4151C57.7544 92.2196 59.1293 91.6157 60.9997 91.6157C63.9974 91.6157 65.4962 93.303 65.4962 96.6777V104.909H62.6534V96.989C62.7131 96.248 62.4918 95.5118 62.034 94.9281C61.7522 94.6843 61.4241 94.5007 61.0696 94.3883C60.7151 94.2759 60.3415 94.2371 59.9716 94.2743C59.41 94.2493 58.8497 94.3478 58.3298 94.5628C57.81 94.7779 57.343 95.1044 56.9616 95.5196V104.952L54.125 104.934ZM51.1273 91.9021V104.934H48.3713V103.415C47.4959 104.618 46.123 105.22 44.2526 105.22C41.255 105.22 39.7562 103.525 39.7562 100.133V91.9021H42.5804V99.8468C42.5192 100.586 42.7407 101.321 43.1997 101.902C43.4802 102.148 43.808 102.333 44.1628 102.447C44.5176 102.56 44.8917 102.599 45.2621 102.562C45.8239 102.588 46.3846 102.49 46.9046 102.275C47.4247 102.06 47.8915 101.732 48.2722 101.316V91.9021H51.1273ZM37.2478 88.1663L35.0553 89.8848C34.2295 88.6395 32.931 88.0169 31.1596 88.0169C30.2961 87.9635 29.4456 88.2492 28.7875 88.8138C28.5101 89.0789 28.292 89.4004 28.1479 89.7568C28.0037 90.1133 27.9367 90.4965 27.9514 90.881C27.9227 91.4711 28.1276 92.0487 28.5212 92.4874C29.0307 92.9636 29.6468 93.3095 30.3173 93.496L32.7947 94.237C34.1149 94.5865 35.3198 95.2802 36.2878 96.248C37.0573 97.1308 37.4627 98.2754 37.4212 99.4484C37.4507 100.249 37.2987 101.045 36.9768 101.777C36.6549 102.51 36.1715 103.159 35.5632 103.676C34.181 104.775 32.4491 105.333 30.6889 105.245C27.3857 105.245 25.1396 104.045 23.9504 101.646L26.1367 99.934C26.4919 100.714 27.0478 101.385 27.747 101.877C28.6402 102.388 29.6628 102.627 30.6889 102.562C31.6212 102.619 32.5435 102.341 33.2902 101.777C33.5923 101.519 33.8323 101.196 33.9922 100.831C34.152 100.467 34.2275 100.071 34.213 99.6725C34.213 98.394 33.3686 97.4975 31.6799 96.9828L29.2025 96.2169C26.2255 95.2788 24.737 93.5645 24.737 91.074C24.7195 90.3184 24.8542 89.567 25.1331 88.865C25.412 88.1631 25.8292 87.5251 26.3597 86.9895C27.4374 85.8813 29.0415 85.3271 31.1596 85.3271C33.9838 85.3271 36.0132 86.2797 37.2478 88.185V88.1663Z" fill="#EC1C24"/>
<path d="M188.746 93.5022L187.099 95.2145C186.703 94.7598 186.213 94.3985 185.663 94.1564C185.112 93.9142 184.516 93.7972 183.915 93.8135C183.343 93.7691 182.774 93.9326 182.311 94.2743C182.141 94.4169 182.006 94.5962 181.914 94.799C181.823 95.0017 181.779 95.2225 181.785 95.4448C181.785 96.2294 182.249 96.6901 183.178 96.9329L185.358 97.4435C187.786 98.008 189.002 99.2533 189.006 101.179C189.015 101.732 188.899 102.28 188.667 102.781C188.435 103.282 188.094 103.724 187.668 104.074C186.777 104.847 185.422 105.233 183.606 105.233C181.37 105.233 179.66 104.498 178.49 103.035L180.162 101.291C180.582 101.828 181.117 102.264 181.727 102.565C182.337 102.867 183.006 103.027 183.686 103.035C184.302 103.067 184.914 102.923 185.451 102.618C185.659 102.495 185.83 102.318 185.946 102.105C186.061 101.892 186.117 101.652 186.108 101.41C186.108 100.694 185.556 100.164 184.454 99.9278L182.193 99.355C180.009 98.8029 178.915 97.5805 178.911 95.6877C178.909 95.151 179.018 94.6199 179.232 94.1279C179.445 93.6359 179.757 93.1939 180.15 92.8298C180.975 91.9996 182.249 91.5845 183.971 91.5845C184.849 91.5325 185.728 91.6725 186.547 91.995C187.366 92.3175 188.106 92.8147 188.715 93.4524L188.746 93.5022ZM174.068 94.3116V100.855C174.068 101.976 174.588 102.537 175.628 102.537C176.204 102.529 176.773 102.413 177.307 102.194L177.449 104.685C176.588 105.017 175.671 105.182 174.749 105.17C174.25 105.212 173.749 105.138 173.283 104.955C172.817 104.771 172.399 104.483 172.061 104.112C171.441 103.273 171.134 102.241 171.194 101.198V94.2867H168.809V92.1138L171.194 91.8274V88.5959L174.068 88.1414V91.8274H177.251V94.2867L174.068 94.3116ZM159.389 97.1695H164.963C164.975 97.0079 164.975 96.8455 164.963 96.6839C164.984 96.314 164.93 95.9437 164.806 95.595C164.681 95.2463 164.488 94.9264 164.239 94.6541C163.987 94.4029 163.687 94.2069 163.356 94.0783C163.026 93.9497 162.673 93.8913 162.319 93.9069C160.531 93.9401 159.562 95.0443 159.414 97.2193L159.389 97.1695ZM162.659 102.711C163.908 102.725 165.115 102.265 166.041 101.422L167.403 103.29C166.834 103.879 166.146 104.338 165.384 104.635C164.522 104.999 163.595 105.183 162.659 105.177C160.572 105.177 159.024 104.554 158.008 103.309C157.016 101.856 156.485 100.136 156.485 98.3743C156.485 96.6126 157.016 94.8922 158.008 93.44C158.535 92.7981 159.205 92.2899 159.963 91.9568C160.722 91.6236 161.548 91.4747 162.374 91.5223C164.152 91.5223 165.471 92.064 166.369 93.1349C167.263 94.2552 167.731 95.6591 167.688 97.0948C167.707 97.8141 167.641 98.5331 167.49 99.2367H159.414C159.392 100.157 159.7 101.054 160.281 101.765C160.584 102.098 160.957 102.36 161.372 102.532C161.787 102.704 162.235 102.782 162.684 102.761L162.659 102.711ZM146.476 97.1695H152.05C152.061 97.0078 152.061 96.8455 152.05 96.6839C152.07 96.314 152.017 95.9437 151.892 95.595C151.768 95.2463 151.575 94.9264 151.325 94.6541C151.074 94.4026 150.774 94.2064 150.443 94.0778C150.113 93.9491 149.759 93.891 149.405 93.9069C147.628 93.9568 146.631 95.0463 146.5 97.2193L146.476 97.1695ZM149.74 102.711C150.988 102.725 152.196 102.265 153.121 101.422L154.49 103.29C153.92 103.877 153.231 104.336 152.471 104.635C151.606 104.998 150.677 105.182 149.74 105.177C147.659 105.177 146.11 104.554 145.095 103.309C144.103 101.856 143.572 100.136 143.572 98.3743C143.572 96.6126 144.103 94.8922 145.095 93.44C145.618 92.8017 146.282 92.2956 147.035 91.9626C147.788 91.6295 148.608 91.4787 149.43 91.5223C151.214 91.5223 152.527 92.064 153.425 93.1349C154.321 94.2543 154.791 95.6583 154.75 97.0948C154.769 97.8141 154.702 98.5331 154.552 99.2367H146.5C146.476 100.157 146.784 101.055 147.368 101.765C147.67 102.097 148.041 102.359 148.456 102.531C148.87 102.703 149.317 102.782 149.764 102.761L149.74 102.711ZM129.921 104.884V85.215H132.763V93.247C133.285 92.6984 133.918 92.2689 134.619 91.9875C135.319 91.7061 136.072 91.5793 136.826 91.6157C139.824 91.6157 141.323 93.3113 141.323 96.7025V104.934H138.449V96.989C138.503 96.2487 138.282 95.5146 137.83 94.9281C137.551 94.6837 137.225 94.4996 136.872 94.3871C136.519 94.2747 136.148 94.2363 135.78 94.2743C135.214 94.2554 134.651 94.3565 134.127 94.5711C133.603 94.7856 133.13 95.1088 132.739 95.5196V104.952L129.921 104.884ZM127.295 88.1352L125.108 89.8536C124.291 88.6084 122.996 87.9857 121.213 87.9857C120.349 87.931 119.498 88.2169 118.84 88.7827C118.562 89.0475 118.343 89.3687 118.198 89.7251C118.053 90.0815 117.985 90.4649 117.998 90.8498C117.972 91.4407 118.179 92.0181 118.574 92.4562C119.081 92.9357 119.698 93.2821 120.37 93.4649L122.848 94.2058C124.166 94.5553 125.369 95.2491 126.335 96.2169C127.104 97.0996 127.509 98.2442 127.468 99.4172C127.499 100.218 127.347 101.014 127.025 101.747C126.703 102.48 126.219 103.129 125.61 103.645C124.229 104.746 122.496 105.304 120.736 105.214C117.432 105.214 115.188 104.014 114.003 101.615L116.19 99.9029C116.543 100.683 117.096 101.353 117.794 101.845C118.687 102.357 119.71 102.595 120.736 102.53C121.668 102.59 122.591 102.312 123.337 101.746C123.64 101.489 123.881 101.166 124.041 100.801C124.201 100.436 124.276 100.04 124.26 99.6414C124.26 98.3629 123.417 97.4663 121.733 96.9516L119.255 96.1858C116.266 95.2601 114.769 93.5458 114.765 91.0428C114.747 90.2876 114.881 89.5365 115.158 88.8346C115.436 88.1327 115.852 87.4945 116.382 86.9584C117.466 85.8501 119.063 85.296 121.188 85.296C124.062 85.3167 126.114 86.2797 127.344 88.185L127.295 88.1352Z" fill="#008ACB"/>
<path fill-rule="evenodd" clip-rule="evenodd" d="M96.575 51.3191C96.575 51.3191 116.283 39.8316 138.17 54.8494H132.231C132.231 54.8494 118.066 44.109 96.575 51.3191" fill="#008ACB"/>
<path fill-rule="evenodd" clip-rule="evenodd" d="M102.038 51.8483C102.038 51.8483 117.911 47.0665 133.754 58.5789H127.815C120.244 53.4303 111.144 51.054 102.038 51.8483Z" fill="#EC1C24"/>
<path fill-rule="evenodd" clip-rule="evenodd" d="M94.5435 49.3017L85.9346 48.6355L98.0614 47.4525L86.4177 43.4241L98.3835 45.3543L88.3748 38.5053L99.6903 43.53L91.7069 34.452L101.127 41.9236L95.776 31.3389L102.923 40.8278L100.644 29.4336L104.98 40.504L105.729 28.674L107.172 40.4293L110.919 29.2219L109.061 40.7904L115.645 31.2081L110.894 41.9298L119.862 34.203L112.368 43.586L123.182 38.0633L113.657 45.1052L125.455 43.007L118.871 45.4352C118.871 45.4352 124.086 45.7154 127.239 46.9171V20.9098C123.715 21.6072 104.8 24.5896 84.0208 12V55.3101C85.179 54.2143 88.5978 51.3627 94.5497 49.3017" fill="#EC1C24"/>
<path fill-rule="evenodd" clip-rule="evenodd" d="M113.539 62.159C113.539 62.1964 113.477 62.3334 113.279 62.5513C113.164 62.6946 113.042 62.8318 112.913 62.9622C112.796 63.0602 112.651 63.117 112.498 63.1241C112.344 63.1241 112.238 63.1241 112.189 63.012C112.186 62.9851 112.186 62.958 112.189 62.9311C112.329 62.7268 112.482 62.5313 112.647 62.3458C112.738 62.2553 112.846 62.1848 112.966 62.1387C113.085 62.0926 113.213 62.072 113.341 62.0781C113.44 62.0781 113.502 62.1155 113.52 62.159H113.539ZM138.152 59.5689L138.201 59.6125C138.201 59.6623 138.201 59.7308 138.059 59.8117C137.916 59.8927 137.867 59.93 137.817 59.9113C136.486 59.8678 122.86 59.8429 121.182 59.8429H120.048C119.532 59.8429 119.148 59.8429 118.896 59.8429L116.518 63.0556C116.072 63.6783 115.75 64.1079 115.57 64.3818L113.093 68.1674C113.26 68.0018 113.479 67.9004 113.712 67.881C113.818 67.881 113.879 67.881 113.898 67.9806C113.917 68.0803 113.65 68.3791 113.068 68.8959C112.769 69.2167 112.377 69.4346 111.947 69.5185C111.917 69.5213 111.887 69.5158 111.859 69.5027C111.832 69.4895 111.809 69.4692 111.792 69.4438C111.712 69.2944 111.761 69.0702 111.947 68.7776C112.313 68.2235 112.684 67.6569 113.062 67.0716C112.74 67.358 112.387 67.6444 112.009 67.9246C111.26 68.4725 110.808 68.7963 110.64 68.9021C110.174 69.2393 109.631 69.4534 109.061 69.5248C108.935 69.5343 108.81 69.4962 108.71 69.4179C108.61 69.3396 108.543 69.2267 108.522 69.1014C108.479 68.8252 108.522 68.5424 108.646 68.2919C108.731 68.0906 108.832 67.8969 108.95 67.7129C108.465 68.1031 107.958 68.4649 107.432 68.7963C107.073 69.0204 106.769 69.201 106.509 69.338C105.756 69.7997 104.91 70.0868 104.032 70.1785C103.769 70.2071 103.506 70.1323 103.297 69.9698C103.088 69.8072 102.949 69.5696 102.911 69.3068C102.911 69.2134 102.911 69.0827 102.861 68.927C102.911 68.4144 103.104 67.9264 103.419 67.5199L102.799 68.0242C102.209 68.518 101.56 68.9363 100.867 69.2695C100.57 69.4182 100.245 69.503 99.9132 69.5185C99.8142 69.5303 99.7141 69.5069 99.6304 69.4523C99.5467 69.3977 99.4846 69.3154 99.4549 69.2197C99.4304 69.147 99.4304 69.0682 99.4549 68.9955C99.4683 68.8777 99.5041 68.7636 99.5602 68.6593C99.6222 68.5389 99.7089 68.3584 99.8203 68.1176C99.9256 67.9184 100.52 66.9969 101.604 65.3656C100.205 66.4093 98.909 67.5852 97.7332 68.8772C97.2005 69.4563 96.7856 69.7364 96.4945 69.6991C96.3458 69.6991 96.3087 69.5995 96.3892 69.4314C96.4345 69.3633 96.4759 69.2926 96.513 69.2197C96.5798 69.0954 96.6564 68.9767 96.7422 68.8648L97.0828 68.404C97.2934 68.1238 97.6217 67.5884 98.08 66.7976C97.5655 67.304 97.026 67.7841 96.4635 68.2359C95.3487 69.1159 94.5084 69.5538 93.9428 69.5497C93.8557 69.5603 93.7678 69.539 93.695 69.4899C93.6223 69.4407 93.5695 69.3669 93.5464 69.2819C93.4411 68.8897 93.7074 68.1799 94.3453 67.1463C94.4444 66.9533 94.6116 66.6793 94.8346 66.3244L93.0385 67.9869L92.1281 68.7465C91.7441 69.0871 91.2673 69.304 90.7593 69.3691C90.462 69.3691 90.2886 69.2508 90.2391 69.0204C90.2221 68.5665 90.3454 68.1184 90.5921 67.7378C90.7815 67.3853 90.9882 67.0424 91.2114 66.7105C91.7007 65.982 92.0909 65.4278 92.3758 65.048L92.6669 64.6682C92.7249 64.5982 92.7767 64.5232 92.8217 64.4441C92.3809 64.6223 91.9248 64.7598 91.4592 64.855C91.3539 64.855 91.292 64.855 91.2734 64.8239C91.2548 64.7928 91.3477 64.5998 91.5954 64.3943C91.9217 64.2026 92.2661 64.0441 92.6235 63.9211C92.9648 63.776 93.3196 63.6654 93.6826 63.5911C93.887 63.56 94.0047 63.5911 94.0357 63.6347C94.0416 63.6801 94.038 63.7262 94.0252 63.7702C94.0124 63.8141 93.9907 63.8549 93.9613 63.89C93.854 64.0477 93.6991 64.2552 93.4968 64.5126C93.4163 64.6247 93.3048 64.7928 93.1624 65.0045C91.645 67.084 90.9327 68.2733 91.0132 68.5784C91.0132 68.6157 91.0504 68.6282 91.0752 68.6282C91.2845 68.5619 91.4813 68.4609 91.6574 68.3293C92.5513 67.7603 93.3818 67.0965 94.1347 66.3493L96.3582 64.1141C96.5184 63.9837 96.7227 63.9212 96.928 63.9398C97.0601 63.9398 97.1406 63.9709 97.1695 64.0332C97.1513 64.0998 97.1264 64.1645 97.0952 64.2262C96.7546 64.6682 96.2653 65.3531 95.6212 66.2684C94.6798 67.7129 94.24 68.5576 94.302 68.8025C94.302 68.8461 94.302 68.8648 94.3763 68.8648C94.407 68.859 94.4385 68.859 94.4692 68.8648C95.841 68.2003 97.0682 67.2692 98.08 66.1252C98.1312 66.0652 98.1949 66.0173 98.2666 65.9851C98.3384 65.9528 98.4164 65.9368 98.4949 65.9384H98.5507C98.7055 65.6769 98.9161 65.3158 99.17 64.8114C99.232 64.6869 99.3063 64.5126 99.3868 64.3071C99.4253 64.2267 99.4504 64.1404 99.4611 64.0518C98.9971 64.327 98.556 64.6393 98.1419 64.9858C98.0633 65.0432 97.9739 65.0839 97.8791 65.1053C97.7843 65.1268 97.6862 65.1284 97.5907 65.1103C97.4854 65.1103 97.4235 65.0729 97.4049 65.0356C97.3863 64.9982 97.4049 64.9297 97.5288 64.8426C98.5507 63.9958 99.3125 63.5973 99.8142 63.5973C100.074 63.5973 100.223 63.6845 100.26 63.865C100.235 64.2241 100.136 64.5741 99.969 64.8924C99.9009 65.0543 99.6779 65.4341 99.3125 66.0505C99.1762 66.2622 98.9656 66.5984 98.6931 67.0654L98.5693 67.2708C99.3547 66.4998 100.197 65.79 101.09 65.1477L101.709 64.6558C101.917 64.482 102.176 64.3814 102.446 64.3694C102.651 64.3694 102.756 64.4192 102.768 64.5126C102.781 64.606 102.719 64.799 102.539 65.0854C102.539 65.0854 102.539 65.1414 102.446 65.2286C101.951 65.9467 101.245 67.0446 100.328 68.5223C100.328 68.5721 100.328 68.6282 100.279 68.6967C100.269 68.7183 100.265 68.7416 100.265 68.7651C100.265 68.7887 100.269 68.812 100.279 68.8336C100.279 68.9333 100.39 68.9706 100.526 68.9457C101.059 68.8668 101.969 68.2712 103.258 67.1588C103.493 66.9595 103.722 66.754 103.951 66.5361C104.056 66.454 104.184 66.4062 104.317 66.3992C104.54 66.1688 104.794 65.9322 105.072 65.6769C105.902 64.9044 106.877 64.3073 107.94 63.9211C108.231 63.8079 108.539 63.7468 108.85 63.7405C109.34 63.7405 109.643 63.9211 109.755 64.2822C109.866 64.6433 109.383 65.2535 108.374 65.9758C108.233 66.0573 108.071 66.0942 107.909 66.0816C107.715 66.0816 107.603 66.0567 107.575 66.0069C107.575 65.9633 107.618 65.901 107.742 65.8139C108.214 65.5139 108.623 65.1223 108.943 64.662C109.042 64.4877 109.08 64.3694 109.049 64.2947C109.018 64.2199 108.807 64.1141 108.429 64.2324C107.554 64.5123 106.74 64.9583 106.032 65.5461C104.608 66.6544 103.764 67.7191 103.499 68.7402C103.45 68.8994 103.44 69.068 103.468 69.2321C103.518 69.4749 103.716 69.5995 104.088 69.5995C104.707 69.5995 105.772 69.12 107.246 68.1736C108.26 67.5558 109.212 66.8406 110.089 66.038C110.115 66.0051 110.149 65.9794 110.188 65.9633C110.473 65.5897 110.808 65.1726 111.179 64.718C111.266 64.5997 111.464 64.5437 111.761 64.5437C111.885 64.5437 111.953 64.5437 111.972 64.6184C111.976 64.6451 111.974 64.6726 111.964 64.6978C111.954 64.723 111.938 64.7451 111.916 64.7616C111.65 65.0667 111.297 65.4714 110.919 66.0069C110.908 66.047 110.884 66.0822 110.851 66.1065L110.795 66.1688L110.089 67.0529C109.879 67.358 109.594 67.825 109.247 68.4601C109.167 68.5928 109.135 68.7485 109.154 68.9021C109.167 68.952 109.197 68.9956 109.239 69.0253C109.281 69.0549 109.332 69.0686 109.383 69.064C109.436 69.0675 109.49 69.0568 109.538 69.0329C109.538 69.0329 109.569 69.0329 109.724 68.9831C111.185 68.2379 112.5 67.2339 113.607 66.0193C113.676 65.9541 113.762 65.9089 113.855 65.8886L114.623 64.6433C114.901 64.2449 115.31 63.672 115.861 62.9311L116.202 62.4766C116.598 61.9349 117.261 61.0508 118.184 59.8117L110.194 60.0359H110.108C110.083 59.9778 110.126 59.9093 110.238 59.8304C110.305 59.7626 110.392 59.717 110.485 59.6997L118.456 59.4817C118.952 58.7844 119.497 58.0372 120.104 57.2465C120.23 57.0955 120.402 56.9905 120.593 56.9476C120.686 56.9058 120.784 56.8785 120.884 56.8667C120.959 56.8667 120.99 56.8667 120.99 56.929C120.993 56.9575 120.991 56.9865 120.984 57.0143C120.977 57.042 120.964 57.0681 120.946 57.0908C120.63 57.5454 120.048 58.3361 119.212 59.4631C119.478 59.4631 119.862 59.4631 120.376 59.4631H121.528C123.176 59.4817 136.808 59.5129 138.17 59.5689H138.152ZM114.251 74.263C115.087 73.1547 116.016 71.8845 117.032 70.4649C115.8 71.2925 114.656 72.246 113.619 73.3103C112.748 74.1729 111.957 75.1128 111.253 76.1184C110.671 77.0025 110.424 77.6003 110.504 77.9053C110.505 77.9261 110.51 77.9465 110.519 77.9652C110.528 77.984 110.54 78.0006 110.556 78.0141C110.572 78.0275 110.59 78.0376 110.61 78.0435C110.63 78.0494 110.651 78.0512 110.671 78.0486C111.142 78.0652 112.335 76.8033 114.251 74.263ZM122.835 62.763C122.897 63.0494 122.451 63.8796 121.497 65.2535L120.469 66.7105C120.271 66.9595 120.017 67.3331 119.701 67.7378L119.039 68.7216C119.318 68.549 119.618 68.4111 119.931 68.3106C120.067 68.3106 120.098 68.3916 120.036 68.5597C120.008 68.6407 119.964 68.7152 119.907 68.7784C119.849 68.8416 119.779 68.8922 119.701 68.927L118.395 69.6368C116.636 72.1689 115.065 74.2754 113.681 75.9565C112.03 77.9614 110.826 78.9638 110.071 78.9638C109.779 78.9638 109.6 78.8517 109.55 78.6338C109.516 78.1999 109.613 77.7657 109.829 77.3886C111.241 74.375 113.888 71.7164 117.769 69.4127C118.946 67.7523 119.978 66.2269 120.866 64.8364C118.227 67.1774 116.411 68.375 115.415 68.4289C115.131 68.4289 114.963 68.3542 114.926 68.1736C114.846 67.8374 115.162 67.1525 115.88 66.119C116.357 65.4278 116.902 64.7243 117.503 63.9958C117.627 63.8837 117.783 63.8121 117.949 63.7903C118.165 63.7343 118.283 63.7592 118.302 63.8526C118.32 63.946 118.302 63.9709 118.184 64.0892C117.595 64.7988 117.043 65.5386 116.53 66.3058C116.205 66.7062 115.954 67.1616 115.787 67.6506C115.797 67.6792 115.815 67.7039 115.84 67.7217C115.864 67.7395 115.893 67.7495 115.923 67.7503C116.234 67.676 116.526 67.5406 116.784 67.3518C118.134 66.4814 119.403 65.4894 120.575 64.3881C120.8 64.18 121.007 63.953 121.194 63.7094C121.739 63.0432 122.204 62.6945 122.594 62.6634C122.718 62.6509 122.804 62.6945 122.835 62.7879V62.763ZM95.9742 52.6888H96.2653H96.7112C99.1886 52.6888 100.555 53.2222 100.811 54.289C100.852 54.4499 100.86 54.6177 100.833 54.7816C100.807 54.9456 100.746 55.1022 100.656 55.2416C100.567 55.4264 100.428 55.5826 100.255 55.6925C100.082 55.8025 99.8824 55.8619 99.6779 55.8643C99.4921 55.8643 99.3806 55.802 99.3496 55.6775C99.3334 55.6536 99.3247 55.6254 99.3247 55.5965C99.3247 55.5676 99.3334 55.5394 99.3496 55.5156L99.6098 55.2354C99.6656 55.1256 99.6988 55.0055 99.7073 54.8825C99.7158 54.7594 99.6995 54.6359 99.6593 54.5194C99.393 53.6726 98.3401 53.2741 96.5068 53.2741C96.2263 53.2591 95.9451 53.2591 95.6645 53.2741C93.0137 53.5356 90.972 54.2641 89.5392 55.4595C88.8874 55.9926 88.3675 56.6704 88.0204 57.4396C87.6732 58.2088 87.5084 59.0485 87.5387 59.8927C87.5343 60.43 87.5862 60.9664 87.6935 61.4928C87.7431 61.7357 88.0404 62.7381 88.573 64.4503C88.6597 64.7616 88.7279 64.9982 88.7712 65.1663C88.9191 65.6963 89.0063 66.2415 89.0313 66.7914C89.0294 67.3128 88.9263 67.8289 88.7279 68.3106C88.1457 69.7551 86.845 70.88 84.826 71.6853C83.1732 72.3213 81.4334 72.6993 79.6668 72.806C79.2457 72.806 78.8369 72.8558 78.4281 72.8558C76.1572 72.8558 74.9495 72.3972 74.805 71.4798C74.743 71.0564 74.9846 70.6642 75.5234 70.303C75.9262 70.0053 76.4056 69.8302 76.9045 69.7987C77.078 69.7987 77.1832 69.8547 77.2142 69.9606C77.2452 70.0664 77.1337 70.191 76.8736 70.2719C76.056 70.5272 75.6906 70.8198 75.7711 71.1436C75.7702 71.1783 75.7783 71.2126 75.7946 71.2432C75.8108 71.2737 75.8348 71.2995 75.864 71.3179C76.3678 71.9821 77.3092 72.3141 78.6883 72.3141C78.8493 72.3141 79.1466 72.3141 79.5801 72.2706C83.0361 72.0132 85.4309 71.1623 86.7645 69.7178C87.5072 69.0154 87.951 68.0517 88.0032 67.028C87.9973 66.5536 87.937 66.0814 87.8236 65.6209C87.7183 65.185 87.5201 64.5188 87.2043 63.6222C87.1299 63.4105 87.037 63.0494 86.9132 62.5326C86.6978 61.7089 86.5793 60.8625 86.5601 60.011C86.5601 59.3769 86.6583 58.7467 86.8512 58.1431C87.1578 57.2845 87.6303 56.4954 88.2415 55.8211C88.8527 55.1468 89.5905 54.6007 90.4125 54.2143C92.1411 53.3237 94.0351 52.8042 95.9742 52.6888V52.6888Z" fill="#008ACB"/>
<path fill-rule="evenodd" clip-rule="evenodd" d="M132.503 22.1489C132.797 22.1513 133.083 22.2411 133.326 22.4067C133.568 22.5724 133.757 22.8067 133.868 23.0799C133.978 23.3532 134.006 23.6532 133.947 23.9423C133.888 24.2313 133.746 24.4964 133.538 24.7041C133.329 24.9119 133.064 25.053 132.776 25.1096C132.488 25.1663 132.19 25.136 131.919 25.0225C131.648 24.9091 131.417 24.7175 131.254 24.4721C131.091 24.2266 131.004 23.9382 131.004 23.6432C131.008 23.2457 131.167 22.8657 131.448 22.5858C131.729 22.3059 132.108 22.1489 132.503 22.1489V22.1489ZM132.503 21.8064C132.872 21.8065 133.232 21.9169 133.539 22.1235C133.845 22.3302 134.083 22.6238 134.223 22.9669C134.362 23.31 134.397 23.6872 134.323 24.0503C134.249 24.4135 134.069 24.7462 133.806 25.0062C133.543 25.2661 133.209 25.4415 132.846 25.51C132.484 25.5785 132.109 25.5371 131.77 25.3909C131.432 25.2448 131.144 25.0005 130.943 24.6893C130.743 24.378 130.639 24.0139 130.645 23.6432C130.653 23.1532 130.853 22.6861 131.2 22.3425C131.548 21.9989 132.016 21.8064 132.503 21.8064V21.8064Z" fill="#231F20"/>
<path d="M132.119 23.5498H132.565C132.639 23.562 132.714 23.562 132.788 23.5498C132.838 23.529 132.881 23.4945 132.912 23.4502C132.939 23.4073 132.954 23.3578 132.955 23.307C132.955 23.2729 132.948 23.2392 132.934 23.2081C132.92 23.177 132.9 23.1491 132.875 23.1264C132.8 23.0706 132.708 23.044 132.615 23.0517H132.119V23.5498ZM131.909 24.4526V22.8524H132.609C132.718 22.8466 132.827 22.8614 132.931 22.896C133.003 22.9259 133.064 22.9783 133.104 23.0455C133.148 23.1165 133.172 23.1984 133.172 23.2821C133.174 23.3349 133.165 23.3875 133.145 23.4367C133.126 23.4859 133.097 23.5307 133.061 23.5685C132.967 23.651 132.85 23.7031 132.726 23.7179C132.771 23.7357 132.813 23.7609 132.85 23.7926C132.915 23.8565 132.974 23.9275 133.023 24.0043L133.296 24.4402H133.036L132.825 24.1102C132.763 24.0105 132.714 23.942 132.677 23.8922C132.648 23.8493 132.612 23.8114 132.571 23.7802L132.478 23.7428H132.119V24.4526H131.909Z" fill="#231F20"/>
</g>
<defs>
<clipPath id="clip0_277_18">
<rect width="165" height="110" fill="white" transform="translate(24 12)"/>
</clipPath>
</defs>
</svg>
